<svg width="1140" height="650" viewBox="0 0 1140 650" fill="none" xmlns="http://www.w3.org/2000/svg">
<path d="M455.445 214.88C455.445 208.16 456.805 202.28 459.525 197.24C462.245 192.12 465.965 188.16 470.685 185.36C475.485 182.56 480.805 181.16 486.645 181.16C492.405 181.16 497.405 182.4 501.645 184.88C505.885 187.36 509.045 190.48 511.125 194.24V182.24H522.165V248H511.125V235.76C508.965 239.6 505.725 242.8 501.405 245.36C497.165 247.84 492.205 249.08 486.525 249.08C480.685 249.08 475.405 247.64 470.685 244.76C465.965 241.88 462.245 237.84 459.525 232.64C456.805 227.44 455.445 221.52 455.445 214.88ZM511.125 215C511.125 210.04 510.125 205.72 508.125 202.04C506.125 198.36 503.405 195.56 499.965 193.64C496.605 191.64 492.885 190.64 488.805 190.64C484.725 190.64 481.005 191.6 477.645 193.52C474.285 195.44 471.605 198.24 469.605 201.92C467.605 205.6 466.605 209.92 466.605 214.88C466.605 219.92 467.605 224.32 469.605 228.08C471.605 231.76 474.285 234.6 477.645 236.6C481.005 238.52 484.725 239.48 488.805 239.48C492.885 239.48 496.605 238.52 499.965 236.6C503.405 234.6 506.125 231.76 508.125 228.08C510.125 224.32 511.125 219.96 511.125 215ZM553.939 191.24V230C553.939 233.2 554.619 235.48 555.979 236.84C557.339 238.12 559.699 238.76 563.059 238.76H571.099V248H561.259C555.179 248 550.619 246.6 547.579 243.8C544.539 241 543.019 236.4 543.019 230V191.24H534.499V182.24H543.019V165.68H553.939V182.24H571.099V191.24H553.939ZM616.97 181.04C621.93 181.04 626.41 182.12 630.41 184.28C634.41 186.36 637.53 189.52 639.77 193.76C642.09 198 643.25 203.16 643.25 209.24V248H632.45V210.8C632.45 204.24 630.81 199.24 627.53 195.8C624.25 192.28 619.77 190.52 614.09 190.52C608.33 190.52 603.73 192.32 600.29 195.92C596.93 199.52 595.25 204.76 595.25 211.64V248H584.33V159.2H595.25V191.6C597.41 188.24 600.37 185.64 604.13 183.8C607.97 181.96 612.25 181.04 616.97 181.04ZM721.088 212.6C721.088 214.68 720.968 216.88 720.728 219.2H668.168C668.568 225.68 670.768 230.76 674.768 234.44C678.848 238.04 683.768 239.84 689.528 239.84C694.248 239.84 698.168 238.76 701.288 236.6C704.488 234.36 706.728 231.4 708.008 227.72H719.768C718.008 234.04 714.488 239.2 709.208 243.2C703.928 247.12 697.368 249.08 689.528 249.08C683.288 249.08 677.688 247.68 672.728 244.88C667.848 242.08 664.008 238.12 661.208 233C658.408 227.8 657.008 221.8 657.008 215C657.008 208.2 658.368 202.24 661.088 197.12C663.808 192 667.608 188.08 672.488 185.36C677.448 182.56 683.128 181.16 689.528 181.16C695.768 181.16 701.288 182.52 706.088 185.24C710.888 187.96 714.568 191.72 717.128 196.52C719.768 201.24 721.088 206.6 721.088 212.6ZM709.808 210.32C709.808 206.16 708.888 202.6 707.048 199.64C705.208 196.6 702.688 194.32 699.488 192.8C696.368 191.2 692.888 190.4 689.048 190.4C683.528 190.4 678.808 192.16 674.888 195.68C671.048 199.2 668.848 204.08 668.288 210.32H709.808ZM793.822 182.24V248H782.902V238.28C780.822 241.64 777.902 244.28 774.142 246.2C770.462 248.04 766.382 248.96 761.902 248.96C756.782 248.96 752.182 247.92 748.102 245.84C744.022 243.68 740.782 240.48 738.382 236.24C736.062 232 734.902 226.84 734.902 220.76V182.24H745.702V219.32C745.702 225.8 747.342 230.8 750.622 234.32C753.902 237.76 758.382 239.48 764.062 239.48C769.902 239.48 774.502 237.68 777.862 234.08C781.222 230.48 782.902 225.24 782.902 218.36V182.24H793.822ZM835.54 249.08C830.5 249.08 825.98 248.24 821.98 246.56C817.98 244.8 814.82 242.4 812.5 239.36C810.18 236.24 808.9 232.68 808.66 228.68H819.94C820.26 231.96 821.78 234.64 824.5 236.72C827.3 238.8 830.94 239.84 835.42 239.84C839.58 239.84 842.86 238.92 845.26 237.08C847.66 235.24 848.86 232.92 848.86 230.12C848.86 227.24 847.58 225.12 845.02 223.76C842.46 222.32 838.5 220.92 833.14 219.56C828.26 218.28 824.26 217 821.14 215.72C818.1 214.36 815.46 212.4 813.22 209.84C811.06 207.2 809.98 203.76 809.98 199.52C809.98 196.16 810.98 193.08 812.98 190.28C814.98 187.48 817.82 185.28 821.5 183.68C825.18 182 829.38 181.16 834.1 181.16C841.38 181.16 847.26 183 851.74 186.68C856.22 190.36 858.62 195.4 858.94 201.8H848.02C847.78 198.36 846.38 195.6 843.82 193.52C841.34 191.44 837.98 190.4 833.74 190.4C829.82 190.4 826.7 191.24 824.38 192.92C822.06 194.6 820.9 196.8 820.9 199.52C820.9 201.68 821.58 203.48 822.94 204.92C824.38 206.28 826.14 207.4 828.22 208.28C830.38 209.08 833.34 210 837.1 211.04C841.82 212.32 845.66 213.6 848.62 214.88C851.58 216.08 854.1 217.92 856.18 220.4C858.34 222.88 859.46 226.12 859.54 230.12C859.54 233.72 858.54 236.96 856.54 239.84C854.54 242.72 851.7 245 848.02 246.68C844.42 248.28 840.26 249.08 835.54 249.08Z" fill="black"/>
<path d="M678.223 426.92C680.143 423.16 682.863 420.24 686.383 418.16C689.983 416.08 694.343 415.04 699.463 415.04V426.32H696.583C684.343 426.32 678.223 432.96 678.223 446.24V482H667.303V416.24H678.223V426.92ZM772.068 446.6C772.068 448.68 771.948 450.88 771.708 453.2H719.148C719.548 459.68 721.748 464.76 725.748 468.44C729.828 472.04 734.748 473.84 740.508 473.84C745.228 473.84 749.148 472.76 752.268 470.6C755.468 468.36 757.708 465.4 758.988 461.72H770.748C768.988 468.04 765.468 473.2 760.188 477.2C754.908 481.12 748.348 483.08 740.508 483.08C734.268 483.08 728.668 481.68 723.708 478.88C718.828 476.08 714.988 472.12 712.188 467C709.388 461.8 707.988 455.8 707.988 449C707.988 442.2 709.348 436.24 712.068 431.12C714.788 426 718.588 422.08 723.468 419.36C728.428 416.56 734.108 415.16 740.508 415.16C746.748 415.16 752.268 416.52 757.068 419.24C761.868 421.96 765.548 425.72 768.108 430.52C770.748 435.24 772.068 440.6 772.068 446.6ZM760.788 444.32C760.788 440.16 759.868 436.6 758.028 433.64C756.188 430.6 753.668 428.32 750.468 426.8C747.348 425.2 743.868 424.4 740.028 424.4C734.508 424.4 729.788 426.16 725.868 429.68C722.028 433.2 719.828 438.08 719.268 444.32H760.788ZM818.522 415.04C826.522 415.04 833.002 417.48 837.962 422.36C842.922 427.16 845.402 434.12 845.402 443.24V482H834.602V444.8C834.602 438.24 832.962 433.24 829.682 429.8C826.402 426.28 821.922 424.52 816.242 424.52C810.482 424.52 805.882 426.32 802.442 429.92C799.082 433.52 797.402 438.76 797.402 445.64V482H786.482V416.24H797.402V425.6C799.562 422.24 802.482 419.64 806.162 417.8C809.922 415.96 814.042 415.04 818.522 415.04ZM895.28 415.04C903.28 415.04 909.76 417.48 914.72 422.36C919.68 427.16 922.16 434.12 922.16 443.24V482H911.36V444.8C911.36 438.24 909.72 433.24 906.44 429.8C903.16 426.28 898.68 424.52 893 424.52C887.24 424.52 882.64 426.32 879.2 429.92C875.84 433.52 874.16 438.76 874.16 445.64V482H863.24V416.24H874.16V425.6C876.32 422.24 879.24 419.64 882.92 417.8C886.68 415.96 890.8 415.04 895.28 415.04ZM999.998 446.6C999.998 448.68 999.878 450.88 999.638 453.2H947.078C947.478 459.68 949.678 464.76 953.678 468.44C957.758 472.04 962.678 473.84 968.438 473.84C973.158 473.84 977.078 472.76 980.198 470.6C983.398 468.36 985.638 465.4 986.918 461.72H998.678C996.918 468.04 993.398 473.2 988.118 477.2C982.838 481.12 976.278 483.08 968.438 483.08C962.198 483.08 956.598 481.68 951.638 478.88C946.758 476.08 942.918 472.12 940.118 467C937.318 461.8 935.918 455.8 935.918 449C935.918 442.2 937.278 436.24 939.998 431.12C942.718 426 946.518 422.08 951.398 419.36C956.358 416.56 962.038 415.16 968.438 415.16C974.678 415.16 980.198 416.52 984.998 419.24C989.798 421.96 993.478 425.72 996.038 430.52C998.678 435.24 999.998 440.6 999.998 446.6ZM988.718 444.32C988.718 440.16 987.798 436.6 985.958 433.64C984.118 430.6 981.598 428.32 978.398 426.8C975.278 425.2 971.798 424.4 967.958 424.4C962.438 424.4 957.718 426.16 953.798 429.68C949.958 433.2 947.758 438.08 947.198 444.32H988.718ZM1025.33 426.92C1027.25 423.16 1029.97 420.24 1033.49 418.16C1037.09 416.08 1041.45 415.04 1046.57 415.04V426.32H1043.69C1031.45 426.32 1025.33 432.96 1025.33 446.24V482H1014.41V416.24H1025.33V426.92Z" fill="black"/>
<path d="M1083.72 487.32C1079.91 487.32 1076.68 486 1074.04 483.36C1071.4 480.72 1070.08 477.493 1070.08 473.68C1070.08 469.867 1071.4 466.64 1074.04 464C1076.68 461.36 1079.91 460.04 1083.72 460.04C1087.39 460.04 1090.47 461.36 1092.96 464C1095.6 466.64 1096.92 469.867 1096.92 473.68C1096.92 477.493 1095.6 480.72 1092.96 483.36C1090.47 486 1087.39 487.32 1083.72 487.32Z" fill="#205168"/>
<path d="M518.131 37.2C519.465 37.2 520.398 38 520.931 39.6C521.465 40.9333 521.331 42.1333 520.531 43.2C506.931 56.5333 494.798 71.4667 484.131 88C473.731 104.267 464.931 121.067 457.731 138.4C450.531 155.733 445.065 172.933 441.331 190C437.865 206.8 436.131 222.267 436.131 236.4C436.131 250.8 437.865 262.133 441.331 270.4C444.798 278.4 449.598 282.4 455.731 282.4C461.065 282.4 466.131 280.4 470.931 276.4C475.998 272.4 480.931 266.8 485.731 259.6C486.531 259.067 487.331 259.067 488.131 259.6C489.198 260.133 489.598 261.067 489.331 262.4C486.398 266.933 483.065 271.467 479.331 276C475.598 280.267 471.465 284.267 466.931 288C462.665 291.467 458.265 294.4 453.731 296.8C449.198 298.933 444.798 300 440.531 300C430.665 300 423.331 295.467 418.531 286.4C413.731 277.333 411.331 265.2 411.331 250C411.331 237.467 412.798 223.6 415.731 208.4C418.665 192.933 422.931 177.2 428.531 161.2C434.398 145.2 441.331 129.6 449.331 114.4C457.598 98.9333 466.931 85.0667 477.331 72.8C461.331 84.8 444.798 99.2 427.731 116C410.665 132.8 394.131 150.8 378.131 170C362.398 188.933 347.598 208.533 333.731 228.8C320.131 249.067 308.798 268.8 299.731 288C299.198 289.067 298.131 290.4 296.531 292C294.931 293.333 293.065 294.667 290.931 296C288.798 297.067 286.665 298 284.531 298.8C282.398 299.6 280.531 300 278.931 300C276.798 300 275.998 299.067 276.531 297.2C281.598 255.867 288.798 219.067 298.131 186.8C307.731 154.533 318.931 124.8 331.731 97.6C310.398 129.6 289.465 158.267 268.931 183.6C248.665 208.667 228.131 229.867 207.331 247.2C186.798 264.267 165.865 277.333 144.531 286.4C123.198 295.467 101.198 300 78.5313 300C53.4646 300 34.1313 293.733 20.5313 281.2C7.19792 268.667 0.53125 252.133 0.53125 231.6C0.53125 218 4.39792 205.867 12.1313 195.2C19.8646 184.267 30.5313 176.267 44.1313 171.2C45.1979 170.667 45.8646 170.933 46.1313 172C46.6646 173.067 46.6646 174 46.1313 174.8C37.8646 180.133 31.9979 186.267 28.5313 193.2C25.3313 200.133 23.7313 209.2 23.7313 220.4C23.7313 229.2 25.1979 237.6 28.1313 245.6C31.0646 253.333 35.3313 260.267 40.9313 266.4C46.5313 272.267 53.5979 276.933 62.1313 280.4C70.6646 283.867 80.5313 285.6 91.7313 285.6C114.931 285.6 137.065 280.267 158.131 269.6C179.465 258.933 200.131 244.4 220.131 226C240.398 207.333 260.131 185.467 279.331 160.4C298.798 135.333 318.131 108.4 337.331 79.6C318.665 73.2 299.065 67.8667 278.531 63.6C258.265 59.0667 238.665 56.8 219.731 56.8C198.131 56.8 181.465 62.9333 169.731 75.2C157.998 87.2 150.798 103.467 148.131 124C147.598 125.333 146.798 125.867 145.731 125.6C144.931 125.333 144.398 124.533 144.131 123.2C147.065 96.8 156.665 76.6667 172.931 62.8C189.198 48.9333 210.398 42 236.531 42C247.198 42 258.531 42.8 270.531 44.4C282.531 45.7333 294.265 47.6 305.731 50C317.465 52.4 328.531 55.0666 338.931 58C349.598 60.6667 358.931 63.3333 366.931 66C367.998 65.7333 369.331 65.3333 370.931 64.8C371.998 65.0667 372.665 65.7333 372.931 66.8C373.198 67.8667 373.065 68.8 372.531 69.6C368.798 71.7333 365.598 74.6667 362.931 78.4C360.531 81.8667 357.865 86.2667 354.931 91.6C341.598 118.533 330.931 146.667 322.931 176C315.198 205.067 308.798 234.533 303.731 264.4C315.998 242.267 330.398 220.133 346.931 198C363.731 175.6 381.598 154.4 400.531 134.4C419.465 114.4 438.931 96 458.931 79.2C479.198 62.4 498.931 48.4 518.131 37.2Z" fill="#205168"/>
<path d="M600.892 398.4C608.892 400.8 615.959 404.4 622.092 409.2C628.492 414 633.826 419.6 638.092 426C642.626 432.133 646.092 438.667 648.492 445.6C650.892 452.267 652.092 458.8 652.092 465.2C652.092 476.667 649.826 487.2 645.292 496.8C641.026 506.4 634.359 514.8 625.292 522C616.492 528.933 605.159 534.4 591.292 538.4C577.426 542.133 561.026 544 542.092 544C511.959 544 485.692 540 463.292 532C441.159 523.733 420.892 512 402.492 496.8C401.692 495.467 401.826 494 402.892 492.4C404.226 490.533 406.092 488.933 408.492 487.6C410.892 486.267 413.426 485.333 416.092 484.8C419.026 484.267 421.692 484.533 424.092 485.6C429.159 490.667 434.226 494 439.292 495.6C444.359 496.933 450.626 496.933 458.092 495.6C465.026 494.267 470.759 491.733 475.292 488C480.092 484 484.359 477.867 488.092 469.6C492.092 461.333 496.092 450.533 500.092 437.2C504.359 423.867 509.292 407.067 514.892 386.8C520.492 366.8 527.426 349.467 535.692 334.8C544.226 320.133 554.492 307.733 566.492 297.6C564.892 297.6 563.159 297.6 561.292 297.6C559.692 297.333 557.826 297.2 555.692 297.2C546.892 297.2 538.226 298.4 529.692 300.8C521.159 303.2 513.026 306.8 505.292 311.6C497.826 316.4 491.026 322.267 484.892 329.2C478.759 335.867 473.826 343.6 470.092 352.4C469.292 352.933 468.492 353.067 467.692 352.8C467.159 352.267 467.026 351.333 467.292 350C470.492 341.733 475.292 333.733 481.692 326C488.092 318.267 495.826 311.467 504.892 305.6C513.959 299.733 524.226 295.067 535.692 291.6C547.159 288.133 559.292 286.4 572.092 286.4C573.959 286.4 575.692 286.4 577.292 286.4C578.892 286.4 580.492 286.533 582.092 286.8C587.692 283.6 593.559 280.8 599.692 278.4C605.826 275.733 612.359 273.6 619.292 272C620.626 272 621.292 272.533 621.292 273.6C621.292 274.4 620.626 275.067 619.292 275.6C609.692 278 600.892 282 592.892 287.6C616.359 290.533 633.826 297.2 645.292 307.6C657.026 318 662.892 330.133 662.892 344C662.892 352 661.292 359.333 658.092 366C654.892 372.667 650.492 378.4 644.892 383.2C639.559 388 633.026 391.733 625.292 394.4C617.826 397.067 609.692 398.4 600.892 398.4ZM550.892 538C562.892 538 573.559 536.4 582.892 533.2C592.492 529.733 600.492 525.2 606.892 519.6C613.292 513.733 618.092 506.933 621.292 499.2C624.759 491.467 626.492 483.067 626.492 474C626.492 439.333 605.159 416.267 562.492 404.8C561.692 404 561.959 402.8 563.292 401.2C564.892 399.333 566.892 397.6 569.292 396C571.692 394.133 574.226 392.667 576.892 391.6C579.559 390.533 581.692 390.133 583.292 390.4C585.959 391.467 588.226 392.267 590.092 392.8C592.226 393.333 594.892 393.6 598.092 393.6C602.892 393.6 607.559 392.533 612.092 390.4C616.892 388.267 621.026 385.467 624.492 382C628.226 378.267 631.159 373.867 633.292 368.8C635.692 363.733 636.892 358.267 636.892 352.4C636.892 339.6 632.092 328.267 622.492 318.4C612.892 308.533 598.492 302.133 579.292 299.2C562.226 316.8 548.892 343.6 539.292 379.6C532.359 405.467 525.426 426.4 518.492 442.4C511.826 458.133 504.759 470.533 497.292 479.6C490.092 488.4 482.359 494.4 474.092 497.6C465.826 500.8 456.492 502.667 446.092 503.2C459.692 513.333 475.559 521.733 493.692 528.4C511.826 534.8 530.892 538 550.892 538Z" fill="#205168"/>
<path d="M539.319 69L402.105 309.209C399.723 313.378 400.642 318.652 404.292 321.772L648 530" stroke="black" stroke-opacity="0.23" stroke-width="20"/>
<path d="M990.681 553L1127.89 312.791C1130.28 308.622 1129.36 303.348 1125.71 300.228L882 92" stroke="black" stroke-opacity="0.23" stroke-width="20"/>
<line y1="-10" x2="661.04" y2="-10" transform="matrix(-0.358897 0.933377 -0.960839 -0.277107 865.534 27)" stroke="black" stroke-opacity="0.23" stroke-width="20"/>
</svg>
