<svg width="341" height="143" viewBox="0 0 341 143" fill="none" xmlns="http://www.w3.org/2000/svg">
<path d="M144.6 55L106.8 131.4H88.2L50.6 55V143H0V134.4H19.4V3.19999H61.6L97.6 80L133.8 3.19999H175.8V134.4H195.2V143H144.6V55Z" fill="#16303b"/>
<path d="M340.22 134.4V143H193.02V134.4H236.02C225.354 128.133 216.954 119.667 210.82 109C204.82 98.2 201.82 86 201.82 72.4C201.82 51.8667 208.887 34.6667 223.02 20.8C237.287 6.93334 254.687 0 275.22 0C298.154 0 317.354 8.73333 332.82 26.2L313.42 48.2C303.554 35.9333 291.287 29.8 276.62 29.8C264.887 29.8 254.82 33.6667 246.42 41.4C238.154 49 234.02 59.3333 234.02 72.4C234.02 85.3333 237.954 95.7333 245.82 103.6C253.687 111.467 263.22 115.4 274.42 115.4C289.754 115.4 302.287 109.333 312.02 97.2L332.02 117.8C326.154 124.6 319.554 130.133 312.22 134.4H340.22Z" fill="#EDEEE7"/>
</svg>
