<svg width="100%" height="100%" id="svg" viewBox="0 0 1440 500" xmlns="http://www.w3.org/2000/svg" class="transition duration-300 ease-in-out delay-150"><defs><linearGradient id="gradient" x1="100%" y1="46%" x2="0%" y2="54%"><stop offset="5%" stop-color="#01223251"></stop><stop offset="95%" stop-color="#032f4531"></stop></linearGradient></defs><path d="M 0,500 C 0,500 0,250 0,250 C 47.67947244558799,236.75720491076092 95.35894489117598,223.51440982152184 141,235 C 186.64105510882402,246.48559017847816 230.2436928808841,282.69956562467354 268,273 C 305.7563071191159,263.30043437532646 337.66628358528754,207.68732767978406 377,192 C 416.33371641471246,176.31267232021594 463.09117277796565,200.5511236561901 519,238 C 574.9088272220343,275.4488763438099 639.9690253028498,326.1081776954556 677,302 C 714.0309746971502,277.8918223045444 723.0327260106353,179.0161655619875 764,162 C 804.9672739893647,144.9838344380125 877.900070654609,209.82716005659452 928,228 C 978.099929345391,246.17283994340548 1005.3669913709293,217.67519421163448 1046,227 C 1086.6330086290707,236.32480578836552 1140.631963861673,283.4720630968676 1192,285 C 1243.368036138327,286.5279369031324 1292.1051531823791,242.43655340089495 1333,229 C 1373.8948468176209,215.56344659910505 1406.9474234088104,232.78172329955254 1440,250 C 1440,250 1440,500 1440,500 Z" stroke="none" stroke-width="0" fill="url(#gradient)" class="transition-all duration-300 ease-in-out delay-150 path-0" transform="rotate(-180 720 250)"></path></svg>