<svg width="100%" height="100%" id="svg" viewBox="0 0 1440 500" xmlns="http://www.w3.org/2000/svg" class="transition duration-300 ease-in-out delay-150"><defs><linearGradient id="gradient" x1="100%" y1="46%" x2="0%" y2="54%"><stop offset="5%" stop-color="#01223251"></stop><stop offset="95%" stop-color="#032f4531"></stop></linearGradient></defs><path d="M 0,500 C 0,500 0,250 0,250 C 57.085134376566046,260.12304172517656 114.17026875313209,270.2460834503532 151,265 C 187.8297312468679,259.7539165496468 204.40405936403772,239.13870792376386 246,225 C 287.5959406359623,210.86129207623614 354.2134937907171,203.1990848545914 397,208 C 439.7865062092829,212.8009151454086 458.7419654730937,230.06495265787058 500,231 C 541.2580345269063,231.93504734212942 604.818644316908,216.5411045139264 657,202 C 709.181355683092,187.4588954860736 749.9834572592741,173.77062928642383 792,196 C 834.0165427407259,218.22937071357617 877.2475266459957,276.3763783403782 917,269 C 956.7524733540043,261.6236216596218 993.0264361567433,188.7238573520636 1033,189 C 1072.9735638432567,189.2761426479364 1116.6467287270307,262.72819225136743 1168,286 C 1219.3532712729693,309.27180774863257 1278.3866489351342,282.36337364246646 1325,268 C 1371.6133510648658,253.63662635753354 1405.806675532433,251.81831317876677 1440,250 C 1440,250 1440,500 1440,500 Z" stroke="none" stroke-width="0" fill="url(#gradient)" class="transition-all duration-300 ease-in-out delay-150 path-0"></path></svg>